<svg width="146" height="50" viewBox="0 0 146 50" fill="none" xmlns="http://www.w3.org/2000/svg">
<path d="M29.6585 45.6256C18.9232 45.5178 10.1797 36.9982 10.2173 25.9426C10.2533 15.1714 18.7827 6.43281 29.7288 6.47202C40.7925 6.51287 49.2565 15.2188 49.2435 26.0668C49.2288 37.0929 40.4265 45.5554 29.6585 45.6256ZM44.732 26.8282C45.3039 18.7841 38.8954 11.4557 30.8023 10.9001C22.5114 10.3315 15.2075 16.6763 14.6209 24.959C14.0425 33.1109 20.3938 40.5554 28.4346 41.1616C37.3252 41.8315 44.5915 34.7498 44.732 26.8282Z" fill="#5452F3"/>
<path d="M73.3954 30.3694C72.049 30.3678 70.7026 30.3939 69.3578 30.358C68.7075 30.34 68.3268 30.5786 68.0572 31.1733C67.4886 32.4331 66.915 33.6946 66.2467 34.9021C65.4706 36.3041 64.415 36.5982 62.933 35.9593C62.7271 35.8711 62.5278 35.7681 62.3268 35.6668C60.067 34.5246 59.7386 33.6423 60.8284 31.3727C63.3513 26.1178 65.9036 20.8743 68.4395 15.626C69.1062 14.2469 69.7663 12.8645 70.4199 11.4789C71.0458 10.1537 72.018 9.33837 73.5441 9.32203C75.0605 9.30569 75.9559 10.1978 76.5621 11.4495C78.8464 16.157 81.1177 20.8694 83.3856 25.5851C84.4379 27.773 85.5016 29.9577 86.5065 32.1684C87.0948 33.4626 86.7974 34.3563 85.6487 35.1684C85.0654 35.5802 84.4395 35.9135 83.7533 36.1211C82.335 36.5524 81.3693 36.1586 80.6928 34.8253C80.152 33.7599 79.6046 32.6913 79.1569 31.5851C78.8039 30.7109 78.3186 30.2877 77.3186 30.3514C76.0163 30.4348 74.7026 30.3711 73.3954 30.3694ZM73.4461 19.9822C72.6928 21.5557 72.0196 22.9528 71.3546 24.3547C71.1944 24.6929 71.2565 24.9609 71.6863 24.9658C72.8824 24.9805 74.0801 24.9773 75.2761 24.9724C75.6732 24.9707 75.8366 24.773 75.6552 24.3956C74.982 22.9887 74.4069 21.5312 73.4461 19.9822Z" fill="#0E1217"/>
<path d="M116.712 26.3457C116.712 28.5516 116.722 30.7575 116.711 32.965C116.699 35.1676 116.034 35.8212 113.809 35.8294C112.572 35.8343 111.291 35.9405 110.588 34.5614C110.433 34.2575 110.23 34.3163 109.951 34.4912C106.964 36.3474 104.269 36.2853 101.542 34.3245C97.4917 31.4127 96.196 25.9519 98.7205 21.6415C100.381 18.8081 102.742 16.8327 106.309 16.9046C107.631 16.9307 108.823 17.2738 109.791 18.1987C110.176 18.5663 110.34 18.6284 110.667 18.081C111.415 16.831 113.327 16.4307 115.222 17.0124C116.265 17.3327 116.698 18.1023 116.707 19.7265C116.72 21.9323 116.711 24.1398 116.712 26.3457ZM106.997 23.2085C105.22 23.215 103.735 24.6774 103.761 26.3931C103.786 28.0974 105.319 29.5336 107.085 29.5108C108.706 29.4895 110.139 28.0483 110.165 26.4144C110.191 24.684 108.727 23.2019 106.997 23.2085Z" fill="#0E1217"/>
<path d="M118.729 32.6518C118.793 31.7629 119.311 31.1583 119.848 30.5913C120.902 29.4802 121.936 28.3381 123.09 27.3381C124.012 26.5391 123.814 26.0391 123.02 25.325C121.909 24.3283 120.876 23.2417 119.856 22.1502C119.137 21.3822 118.369 20.5358 118.899 19.3757C119.526 18.0031 120.562 16.941 122.051 16.5619C122.92 16.3397 123.592 17.0342 124.183 17.5979C125.371 18.7335 126.551 19.8822 127.667 21.0881C128.285 21.7547 128.716 21.709 129.298 21.0685C130.351 19.9083 131.428 18.7645 132.557 17.6796C133.306 16.959 134.131 16.1485 135.312 16.6943C136.644 17.3087 137.685 18.2727 138.048 19.7531C138.267 20.642 137.758 21.3446 137.173 21.9492C135.977 23.1845 134.788 24.4263 133.541 25.6077C132.938 26.1779 132.878 26.5864 133.551 27.1191C134.904 28.191 135.969 29.5538 137.168 30.7825C138.461 32.1077 138.423 33.2384 137.134 34.5897C137.005 34.7253 136.871 34.8561 136.739 34.9868C135.136 36.5505 134.235 36.5685 132.652 35.0325C131.528 33.941 130.317 32.9345 129.337 31.7008C128.771 30.99 128.28 30.9574 127.624 31.6616C126.481 32.892 125.293 34.0897 124.046 35.2155C122.616 36.5064 121.909 36.4868 120.436 35.2596C119.598 34.5603 118.804 33.8119 118.729 32.6518Z" fill="#0E1217"/>
<path d="M95.1146 27.876C94.9904 30.273 95.3237 33.3057 94.961 36.3253C94.4839 40.3041 90.7224 43.8433 86.711 44.0998C86.5623 44.1096 86.412 44.1047 86.2633 44.1162C83.095 44.3727 82.3205 43.5279 82.6718 39.9037C82.7731 38.8629 83.4136 38.2175 84.4806 38.0508C84.7388 38.0099 84.9937 37.9348 85.2535 37.9184C88.7126 37.6995 88.8074 36.0361 88.8433 33.7403C88.9152 29.1031 88.8662 24.4642 88.8662 19.8269C88.8662 18.7322 88.7551 17.5099 90.0117 17.0328C91.4005 16.505 92.8858 16.407 94.2355 17.2011C95.0264 17.6668 95.1064 18.5541 95.1113 19.3923C95.1211 22.0116 95.1146 24.6292 95.1146 27.876Z" fill="#0E1217"/>
<path d="M95.116 11.0539C95.1176 13.4265 94.299 14.2157 91.8447 14.2108C89.58 14.2059 88.7206 13.3121 88.7287 10.9657C88.7369 8.66995 89.6176 7.80557 91.9411 7.81701C94.366 7.82844 95.1143 8.58988 95.116 11.0539Z" fill="#0E1217"/>
<path d="M37.7434 27.9206C35.8447 27.9206 33.946 27.9582 32.0489 27.9042C31.1274 27.8781 30.9558 28.1379 31.2761 28.9941C32.1519 31.3405 32.9656 33.7098 33.7924 36.0742C33.9231 36.4467 34.1388 36.816 33.9787 37.5513C29.7107 32.6657 25.5882 27.9467 21.263 22.9974C23.2663 22.9974 24.9705 22.9418 26.6699 23.017C27.7499 23.0644 27.8218 22.7098 27.5016 21.8029C26.7679 19.7229 26.1176 17.615 25.4574 15.5104C25.3431 15.1461 25.0555 14.7833 25.3594 14.182C29.5751 18.7016 33.7336 23.1624 37.8921 27.6232C37.8414 27.7229 37.7924 27.8209 37.7434 27.9206Z" fill="#5452F3"/>
</svg>
